<svg xmlns="http://www.w3.org/2000/svg" xmlns:xlink="http://www.w3.org/1999/xlink" version="1.1" x="0px" y="0px" viewBox="0 0 100 125" style="enable-background:new 0 0 100 100;" xml:space="preserve"><g><path d="M66.23,55.84l-5.92-4.33c-0.9-0.66-2-0.92-3.1-0.75c-1.1,0.17-2.06,0.76-2.72,1.66l-1.83,2.51   c-0.02,0.03-0.04,0.06-0.06,0.09c-0.28,0.04-1.76,0.07-5.3-2.75l-0.38-0.27c-3.7-2.46-4.12-3.87-4.17-4.16   c0.02-0.03,0.05-0.06,0.07-0.09l1.83-2.51c1.35-1.85,0.95-4.46-0.91-5.82l-6.03-4.4c-1.85-1.36-4.46-0.95-5.82,0.91l-1.85,2.54   c-1.79,2.46-2.26,5.69-1.25,8.64c1.47,4.27,5.16,8.78,11,13.42c0.1,0.12,0.22,0.22,0.35,0.32c0.14,0.1,0.29,0.2,0.43,0.3   c0.14,0.11,0.28,0.21,0.42,0.32c0.13,0.1,0.27,0.18,0.41,0.24c6.2,4.14,11.62,6.29,16.14,6.38c0.06,0,0.13,0,0.19,0   c2.95,0,5.77-1.45,7.55-3.9l1.85-2.54c0.66-0.9,0.92-2,0.75-3.1C67.72,57.46,67.13,56.49,66.23,55.84z M63.91,59.3l-1.85,2.54   c-1.06,1.45-2.76,2.28-4.43,2.25c-2.7-0.06-7.42-1.18-14.68-6.17c-6.97-5.4-9.48-9.55-10.36-12.1c-0.58-1.69-0.32-3.6,0.69-4.98   l1.85-2.54c0.05-0.07,0.15-0.09,0.23-0.04l6.03,4.4c0.07,0.05,0.09,0.16,0.04,0.23l-1.75,2.39c-0.53,0.58-1,1.56-0.92,2.81   c0.16,2.31,2.1,4.68,5.88,7.19l0.23,0.17c3.61,2.88,6.46,4.01,8.71,3.46c1.21-0.3,2-1.05,2.39-1.73l1.75-2.39   c0.05-0.06,0.17-0.08,0.23-0.04l5.93,4.33C63.94,59.11,63.95,59.23,63.91,59.3z"/><path d="M48.4,18.01c-18.13,0-32.89,14.75-32.89,32.89c0,7.64,2.65,15,7.48,20.88l-5.55,10.81c-0.37,0.71-0.27,1.57,0.24,2.19   c0.39,0.46,0.95,0.72,1.54,0.72c0.19,0,0.38-0.03,0.57-0.08l15.15-4.5c4.24,1.91,8.76,2.87,13.45,2.87   c18.13,0,32.89-14.75,32.89-32.89S66.53,18.01,48.4,18.01z M48.4,79.78c-4.35,0-8.54-0.94-12.43-2.81   c-0.45-0.21-0.96-0.25-1.43-0.11l-11.39,3.39l4.02-7.84c0.38-0.74,0.26-1.63-0.29-2.25c-4.75-5.3-7.37-12.15-7.37-19.26   c0-15.93,12.96-28.89,28.89-28.89S77.28,34.97,77.28,50.9S64.33,79.78,48.4,79.78z"/></g><text x="0" y="115" fill="#000000" font-size="5px" font-weight="bold" font-family="'Helvetica Neue', Helvetica, Arial-Unicode, Arial, Sans-serif">Created by sureya</text><text x="0" y="120" fill="#000000" font-size="5px" font-weight="bold" font-family="'Helvetica Neue', Helvetica, Arial-Unicode, Arial, Sans-serif">from the Noun Project</text></svg>