<svg xmlns="http://www.w3.org/2000/svg" xmlns:xlink="http://www.w3.org/1999/xlink" version="1.1" x="0px" y="0px" viewBox="0 0 65 81.25" style="enable-background:new 0 0 65 65;" xml:space="preserve"><g><path style="" d="M40.327,40.326h-9.393c-0.861,0-1.564-0.703-1.564-1.564v-4.696h10.958   c2.589,0,4.695-2.108,4.695-4.697c0-2.588-2.105-4.696-4.695-4.696H29.369v-4.696c0-2.589-2.105-4.695-4.695-4.695   s-4.696,2.105-4.696,4.695v18.784c0,6.041,4.915,10.955,10.955,10.955h9.393c2.589,0,4.695-2.106,4.695-4.696   C45.021,42.431,42.916,40.326,40.327,40.326L40.327,40.326z M40.327,46.587h-9.393c-4.313,0-7.824-3.511-7.824-7.826V19.977   c0-0.861,0.702-1.564,1.564-1.564c0.864,0,1.567,0.703,1.567,1.564v6.262c0,0.864,0.7,1.564,1.564,1.564h12.521   c0.864,0,1.564,0.702,1.564,1.566c0,0.862-0.7,1.564-1.564,1.564H27.805c-0.864,0-1.564,0.701-1.564,1.564v6.262   c0,2.589,2.105,4.695,4.692,4.695h9.393c0.861,0,1.564,0.703,1.564,1.564C41.89,45.885,41.188,46.587,40.327,46.587z" fill-rule="evenodd" clip-rule="evenodd"/><path style="" d="M48.153,8.501H16.848c-4.603,0-8.348,3.743-8.348,8.347v31.303   c0,4.602,3.745,8.347,8.348,8.347h31.304c4.602,0,8.347-3.745,8.347-8.347V16.849C56.5,12.244,52.755,8.501,48.153,8.501   L48.153,8.501z M53.369,48.151c0,2.877-2.339,5.217-5.216,5.217H16.848c-2.877,0-5.217-2.34-5.217-5.217V16.849   c0-2.876,2.34-5.219,5.217-5.219h31.304c2.877,0,5.216,2.342,5.216,5.219V48.151z" fill-rule="evenodd" clip-rule="evenodd"/></g><text x="0" y="80" fill="#000000" font-size="5px" font-weight="bold" font-family="'Helvetica Neue', Helvetica, Arial-Unicode, Arial, Sans-serif">Created by Rasama studio</text><text x="0" y="85" fill="#000000" font-size="5px" font-weight="bold" font-family="'Helvetica Neue', Helvetica, Arial-Unicode, Arial, Sans-serif">from the Noun Project</text></svg>